#!OML:ASF E:\id_vita\Project 1\Capture day 1\Session 1\Female.ASF
:FULLY-SPECIFIED
:DEGREES
424
root 38.1437 16.5163 2.01526 -170.887 -85.3206 185.868
lowerback -2.4392 2.53352 -2.06711
upperback -2.74052 3.35388 -1.1468
thorax -1.49594 1.68498 0.0152672
lowerneck 2.10463 -0.092713 -3.94741
upperneck 14.321 -1.15072 6.14173
head 3.96692 -0.642781 2.49537
rclavicle 2.09718e-014 -2.14687e-014
rhumerus -43.6483 -19.8801 -74.0808
rradius 43.8595
rwrist 5.00105
rhand -14.5391 11.9239
rfingers 7.12502
rthumb 11.6092 -17.7346
lclavicle 2.09718e-014 -2.14687e-014
lhumerus -44.0061 24.0682 70.6553
lradius 36.9956
lwrist -10.6941
lhand -9.38928 24.8631
lfingers 7.12502
lthumb 16.5717 54.1755
rfemur -14.3109 -0.561981 29.5888
rtibia 17.4833
rfoot -12.8943 -13.6164
rtoes -7.45332
lfemur -52.5326 1.28447 -19.4605
ltibia 39.9124
lfoot 1.89708 -4.94475
ltoes 4.1722
425
root 38.1864 16.5196 2.01186 -168.862 -85.3665 183.732
lowerback -2.10884 2.41909 -2.26761
upperback -3.01294 3.18378 -1.07554
thorax -1.97411 1.60731 0.174275
lowerneck 2.68169 0.0469406 -4.09109
upperneck 13.6838 -0.914276 5.87268
head 4.09287 -0.578397 2.68286
rclavicle -3.8266e-014 -3.37934e-015
rhumerus -43.4538 -18.7751 -74.6014
rradius 44.3935
rwrist 4.83215
rhand -14.5546 11.5551
rfingers 7.12502
rthumb 11.5943 -18.1042
lclavicle -3.8266e-014 -3.37934e-015
lhumerus -43.6921 23.057 71.8781
lradius 39.1438
lwrist -9.76805
lhand -9.63675 23.7199
lfingers 7.12502
lthumb 16.3334 53.0521
rfemur -14.3931 -0.430304 29.4352
rtibia 17.5853
rfoot -12.6962 -13.7783
rtoes -7.4576
lfemur -52.6556 1.35278 -19.5368
ltibia 40.675
lfoot 2.02326 -5.59095
ltoes 4.397
426
root 38.2268 16.5195 2.01294 -166.664 -85.358 181.46
lowerback -2.42677 2.33952 -2.18754
upperback -2.76988 3.09263 -1.21485
thorax -1.53174 1.55513 0.00912296
lowerneck 2.75445 0.082908 -4.01234
upperneck 13.0278 -0.817365 5.88967
head 3.83663 -0.518746 2.6641
rclavicle 4.53726e-014 -1.63003e-014
rhumerus -42.3442 -18.3031 -75.5184
rradius 44.6284
rwrist 4.99936
rhand -14.7896 11.1931
rfingers 7.12502
rthumb 11.3677 -18.4788
lclavicle 4.53726e-014 -1.63003e-014
lhumerus -42.3083 22.1995 73.1649
lradius 41.09
lwrist -9.05329
lhand -9.84185 23.2151
lfingers 7.12502
lthumb 16.1359 52.5634
rfemur -14.4621 -0.323037 29.2441
rtibia 17.5429
rfoot -12.4439 -13.7979
rtoes -7.45356
lfemur -52.7758 1.37972 -19.6046
ltibia 41.4188
lfoot 2.13884 -6.16498
ltoes 4.2897
427
root 38.2668 16.5303 2.01295 -165.09 -85.2491 179.853
lowerback -2.29185 2.40924 -2.33874
upperback -2.89914 3.17756 -1.22048
thorax -1.75008 1.60157 0.0776984
lowerneck 3.04138 0.0273185 -3.96234
upperneck 12.6042 -0.868013 5.84961
head 3.63376 -0.5438 2.63031
rclavicle -4.37326e-015 2.5842e-015
rhumerus -42.0643 -17.7542 -75.9101
rradius 45.0494
rwrist 4.93559
rhand -14.9951 10.8732
rfingers 7.12502
rthumb 11.1695 -18.8095
lclavicle -4.37326e-015 2.5842e-015
lhumerus -41.4552 21.1902 74.3729
lradius 42.874
lwrist -8.59926
lhand -10.1939 22.2175
lfingers 7.12502
lthumb 15.7969 51.593
rfemur -14.5417 -0.225432 29.1002
rtibia 17.426
rfoot -12.2019 -13.6969
rtoes -7.56978
lfemur -53.0282 1.39989 -19.5344
ltibia 42.1439
lfoot 3.1758 -6.83624
ltoes 3.14476
428
root 38.304 16.5522 2.01151 -163.176 -85.0171 177.931
lowerback -2.28512 2.41531 -2.53888
upperback -2.82148 3.19012 -1.22942
thorax -1.68508 1.61091 0.18172
lowerneck 2.50345 0.0493377 -3.96687
upperneck 12.3943 -0.782243 5.75973
head 3.65461 -0.488513 2.60241
rclavicle -2.40529e-014 1.11319e-014
rhumerus -41.2984 -17.2245 -76.4889
rradius 45.4199
rwrist 4.97452
rhand -14.945 10.6188
rfingers 7.12502
rthumb 11.2178 -19.0613
lclavicle -2.40529e-014 1.11319e-014
lhumerus -40.291 20.5086 75.5658
lradius 44.6285
lwrist -8.16602
lhand -10.8435 21.5474
lfingers 7.12502
lthumb 15.1713 50.9712
rfemur -14.6097 -0.113637 28.8819
rtibia 17.2898
rfoot -12.0641 -13.5585
rtoes -7.79728
lfemur -53.3951 1.41448 -19.4269
ltibia 42.8438
lfoot 2.97263 -6.90287
ltoes 7.17066
429
root 38.3429 16.5653 2.01241 -161.133 -84.8515 175.978
lowerback -2.70248 2.46274 -2.46103
upperback -2.88141 3.25818 -1.43116
thorax -1.49862 1.63803 -0.0490641
lowerneck 3.37291 0.0792938 -3.84202
upperneck 11.6033 -0.731882 5.82967
head 3.21201 -0.467502 2.58488
rclavicle 5.35228e-014 2.38542e-015
rhumerus -40.993 -17.1178 -76.9825
rradius 45.7152
rwrist 5.1679
rhand -14.7394 10.6518
rfingers 7.12502
rthumb 11.4161 -19.0174
lclavicle 5.35228e-014 2.38542e-015
lhumerus -39.6026 19.2806 76.4636
lradius 46.5286
lwrist -7.73084
lhand -11.2237 21.576
lfingers 7.12502
lthumb 14.805 51.0271
rfemur -14.7862 -0.0583063 28.6592
rtibia 17.1142
rfoot -11.8805 -13.4698
rtoes -8.47392
lfemur -53.8047 1.36054 -19.3583
ltibia 43.5346
lfoot 3.52786 -7.43112
ltoes 7.52264
430
root 38.3853 16.5676 2.01018 -159.811 -84.9945 174.643
lowerback -2.54157 2.34658 -2.50448
upperback -2.98871 3.0935 -1.41954
thorax -1.69925 1.55796 -0.0252861
lowerneck 3.60646 0.163748 -3.91476
upperneck 11.1793 -0.596071 5.82347
head 3.01572 -0.404037 2.58984
rclavicle -9.24349e-015 -1.31198e-014
rhumerus -40.5414 -16.6865 -77.3994
rradius 45.8762
rwrist 5.19854
rhand -14.6283 10.9126
rfingers 7.12502
rthumb 11.5232 -18.7506
lclavicle -9.24349e-015 -1.31198e-014
lhumerus -39.0345 18.4081 77.3775
lradius 48.5074
lwrist -7.73849
lhand -11.3622 22.2301
lfingers 7.12502
lthumb 14.6715 51.691
rfemur -14.8916 -0.0202163 28.5974
rtibia 16.9724
rfoot -11.5802 -13.5457
rtoes -8.4453
lfemur -54.0422 1.20386 -19.246
ltibia 44.2517
lfoot 3.93355 -8.03189
ltoes 7.1482
431
root 38.4234 16.5709 2.00638 -158.493 -85.141 173.203
lowerback -2.11584 2.28038 -2.66088
upperback -3.13856 2.98644 -1.37282
thorax -2.10114 1.51176 0.0853188
lowerneck 3.79445 0.194892 -3.83167
upperneck 10.7461 -0.518508 5.70595
head 2.82673 -0.364611 2.52738
rclavicle -5.91384e-015 1.17283e-014
rhumerus -40.3687 -16.3182 -77.6832
rradius 46.2365
rwrist 5.26374
rhand -14.6445 10.8836
rfingers 7.12502
rthumb 11.5076 -18.7805
lclavicle -5.91384e-015 1.17283e-014
lhumerus -38.5437 17.4651 78.2773
lradius 50.3515
lwrist -7.78438
lhand -11.5023 22.4078
lfingers 7.12502
lthumb 14.5366 51.8785
rfemur -14.8924 0.0322031 28.5291
rtibia 16.9332
rfoot -11.3736 -13.5516
rtoes -7.20295
lfemur -54.1294 1.14372 -19.2025
ltibia 45.0212
lfoot 2.709 -10.0272
ltoes 2.56422
432
root 38.4586 16.5764 2.00214 -157.351 -85.0897 172.042
lowerback -1.97454 2.24548 -2.65693
upperback -3.38327 2.9209 -1.43878
thorax -2.42802 1.4797 0.00245937
lowerneck 4.6112 0.268824 -3.82046
upperneck 10.0624 -0.409978 5.72681
head 2.44317 -0.321936 2.51835
rclavicle -5.81445e-015 -2.18663e-014
rhumerus -40.453 -16.0236 -78.0312
rradius 46.5986
rwrist 5.51254
rhand -14.3732 11.2929
rfingers 7.12502
rthumb 11.7692 -18.3564
lclavicle -5.81445e-015 -2.18663e-014
lhumerus -38.3462 16.6067 78.7534
lradius 52.0307
lwrist -7.70482
lhand -11.315 21.6085
lfingers 7.12502
lthumb 14.717 51.0661
rfemur -14.9989 0.101372 28.4376
rtibia 16.8822
rfoot -11.21 -13.5246
rtoes -7.06141
lfemur -54.3265 1.25326 -19.1877
ltibia 45.851
lfoot 4.19253 -9.17495
ltoes 8.1868
433
root 38.4936 16.5846 1.99563 -156.702 -84.9787 171.382
lowerback -2.56713 2.21187 -2.65428
upperback -2.91998 2.91666 -1.51391
thorax -1.61383 1.46982 -0.0367537
lowerneck 4.40299 0.26033 -3.70352
upperneck 9.17234 -0.341906 5.72132
head 2.17909 -0.270857 2.48519
rclavicle -2.83765e-014 -5.56597e-015
rhumerus -39.1352 -16.117 -78.7018
rradius 46.6183
rwrist 5.84172
rhand -13.7296 12.4316
rfingers 7.12502
rthumb 12.3898 -17.1812
lclavicle -2.83765e-014 -5.56597e-015
lhumerus -36.8467 16.1241 79.4834
lradius 53.4395
lwrist -7.76191
lhand -8.94765 21.156
lfingers 7.12502
lthumb 16.9968 50.4324
rfemur -15.0668 0.0805487 28.3948
rtibia 16.7475
rfoot -11.1198 -13.4758
rtoes -7.69644
lfemur -54.5161 1.40847 -19.1259
ltibia 46.7164
lfoot 3.08216 -10.4977
ltoes 7.42103
434
root 38.5238 16.595 1.99027 -156.745 -84.7431 171.352
lowerback -2.16205 2.2463 -2.74406
upperback -3.31376 2.92967 -1.50047
thorax -2.25269 1.48315 -0.0020681
lowerneck 5.22834 0.380654 -3.83242
upperneck 8.65412 -0.196934 5.88654
head 1.85796 -0.215288 2.5543
rclavicle 3.06625e-014 2.3059e-014
rhumerus -39.4371 -15.8191 -78.8168
rradius 46.8131
rwrist 5.9945
rhand -13.1737 13.2473
rfingers 7.12502
rthumb 12.9258 -16.3324
lclavicle 3.06625e-014 2.3059e-014
lhumerus -37.1074 15.2791 79.9984
lradius 55.2089
lwrist -7.43093
lhand -11.5858 21.2829
lfingers 7.12502
lthumb 14.4561 50.7594
rfemur -15.0153 0.0831377 28.3438
rtibia 16.6044
rfoot -11.1354 -13.2341
rtoes -6.96855
lfemur -54.5769 1.64402 -19.0605
ltibia 47.5869
lfoot 3.01186 -10.6122
ltoes 8.66385
